<svg xmlns="http://www.w3.org/2000/svg" viewBox="0 0 512 512" role="img" aria-label="Resolve Men's Therapy logo">
  <defs>
    <linearGradient id="g" x1="0" x2="1" y1="0" y2="1">
      <stop offset="0%" stop-color="#2d5a3d"/>
      <stop offset="100%" stop-color="#87a96b"/>
    </linearGradient>
  </defs>
  <rect width="512" height="512" rx="64" fill="url(#g)"/>
  <g fill="#fff">
    <path d="M128 320c0-70.7 57.3-128 128-128 28.2 0 54.3 9.2 75.2 24.8l-28 28C290.3 231.1 274.9 224 256 224c-53 0-96 43-96 96s43 96 96 96 96-43 96-96h32c0 70.7-57.3 128-128 128s-128-57.3-128-128z"/>
    <path d="M336 160h48v48h-48zM128 224h48v48h-48z" opacity=".9"/>
  </g>
</svg>
